<?xml version="1.0" encoding="UTF-8"?>
<svg id="Layer_1" xmlns="http://www.w3.org/2000/svg" version="1.1" viewBox="0 0 1056.17 154.55">
  <!-- Generator: Adobe Illustrator 30.1.0, SVG Export Plug-In . SVG Version: 2.1.1 Build 136)  -->
  <path d="M61.08,43.18l-2.27,14.2H0l2.27-14.2h58.81ZM1.7,152.27L22.44,28.12c.95-6.25,3.23-11.46,6.85-15.62,3.62-4.17,7.95-7.29,13-9.38,5.04-2.08,10.17-3.12,15.38-3.12,4.12,0,7.42.33,9.91.99,2.49.66,4.3,1.28,5.43,1.85l-7.1,14.49c-.85-.28-1.98-.64-3.37-1.06-1.4-.43-3.3-.64-5.72-.64-5.54,0-9.75,1.4-12.64,4.19-2.89,2.79-4.83,6.89-5.82,12.29l-19.89,120.17H1.7Z"/>
  <path d="M111.93,154.55c-10.46,0-19.1-2.33-25.92-7-6.82-4.66-11.58-11.2-14.28-19.6-2.7-8.4-3.12-18.19-1.28-29.37,1.85-11.17,5.52-21.03,11.01-29.58,5.49-8.55,12.33-15.22,20.53-20.03,8.19-4.81,17.19-7.21,26.99-7.21,5.68,0,11.15.95,16.41,2.84,5.26,1.89,9.8,4.96,13.64,9.2,3.84,4.24,6.51,9.84,8.03,16.8,1.51,6.96,1.42,15.53-.28,25.71l-1.14,7.1h-84.09l2.27-14.49h67.05c1.09-6.15.82-11.65-.82-16.48-1.63-4.83-4.45-8.64-8.45-11.43-4-2.79-9.06-4.19-15.16-4.19s-12.17,1.69-17.61,5.08c-5.45,3.39-9.99,7.65-13.64,12.78-3.65,5.14-5.92,10.36-6.82,15.66l-1.99,12.5c-1.42,9.04-1.2,16.24.67,21.59,1.87,5.35,5.15,9.2,9.84,11.54s10.56,3.52,17.61,3.52c4.5,0,8.64-.63,12.43-1.88,3.79-1.25,7.17-3.15,10.16-5.68,2.98-2.53,5.49-5.69,7.53-9.48l15.34,4.55c-2.6,5.49-6.26,10.31-10.97,14.45-4.71,4.14-10.2,7.36-16.48,9.66-6.27,2.3-13.13,3.44-20.56,3.44Z"/>
  <path d="M228.69,154.55c-10.46,0-19.1-2.33-25.92-7-6.82-4.66-11.58-11.2-14.28-19.6-2.7-8.4-3.12-18.19-1.28-29.37,1.85-11.17,5.52-21.03,11.01-29.58,5.49-8.55,12.33-15.22,20.53-20.03,8.19-4.81,17.19-7.21,26.99-7.21,5.68,0,11.15.95,16.41,2.84,5.26,1.89,9.8,4.96,13.64,9.2,3.84,4.24,6.51,9.84,8.03,16.8,1.51,6.96,1.42,15.53-.28,25.71l-1.14,7.1h-84.09l2.27-14.49h67.05c1.09-6.15.82-11.65-.82-16.48-1.63-4.83-4.45-8.64-8.45-11.43-4-2.79-9.06-4.19-15.16-4.19s-12.17,1.69-17.61,5.08c-5.45,3.39-9.99,7.65-13.64,12.78-3.65,5.14-5.92,10.36-6.82,15.66l-1.99,12.5c-1.42,9.04-1.2,16.24.67,21.59,1.87,5.35,5.15,9.2,9.84,11.54s10.56,3.52,17.61,3.52c4.5,0,8.64-.63,12.43-1.88,3.79-1.25,7.17-3.15,10.16-5.68,2.98-2.53,5.49-5.69,7.53-9.48l15.34,4.55c-2.6,5.49-6.26,10.31-10.97,14.45-4.71,4.14-10.2,7.36-16.48,9.66-6.27,2.3-13.13,3.44-20.56,3.44Z"/>
  <path d="M340.91,6.82l-24.15,145.45h-16.76L324.15,6.82h16.76Z"/>
  <path d="M454.97,43.18l-38.14,109.09h-34.09l-38.14-109.09h31.96l22.66,78.05h1.14l22.58-78.05h32.03Z"/>
  <path d="M519.74,154.4c-11.03,0-20.56-2.35-28.59-7.07-8.03-4.71-14.22-11.29-18.57-19.74-4.36-8.45-6.53-18.26-6.53-29.44s2.18-21.13,6.53-29.58c4.36-8.45,10.55-15.03,18.57-19.74,8.03-4.71,17.55-7.07,28.59-7.07s20.56,2.36,28.59,7.07c8.03,4.71,14.22,11.29,18.57,19.74s6.53,18.31,6.53,29.58-2.18,20.99-6.53,29.44c-4.36,8.45-10.55,15.03-18.57,19.74-8.03,4.71-17.55,7.07-28.59,7.07ZM519.88,130.97c5.02,0,9.21-1.43,12.57-4.3,3.36-2.86,5.91-6.78,7.64-11.75,1.73-4.97,2.59-10.63,2.59-16.97s-.86-12-2.59-16.97c-1.73-4.97-4.27-8.9-7.64-11.79-3.36-2.89-7.55-4.33-12.57-4.33s-9.32,1.45-12.75,4.33c-3.43,2.89-6.01,6.82-7.74,11.79-1.73,4.97-2.59,10.63-2.59,16.97s.86,12,2.59,16.97c1.73,4.97,4.31,8.89,7.74,11.75,3.43,2.87,7.68,4.3,12.75,4.3Z"/>
  <path d="M623.43,89.2v63.07h-30.25V43.18h28.83v19.25h1.28c2.42-6.34,6.46-11.37,12.14-15.09,5.68-3.72,12.57-5.58,20.67-5.58,7.58,0,14.18,1.66,19.82,4.97,5.63,3.31,10.01,8.04,13.14,14.17,3.12,6.13,4.69,13.44,4.69,21.91v69.46h-30.25v-64.06c.05-6.68-1.66-11.9-5.11-15.66s-8.21-5.65-14.28-5.65c-4.07,0-7.66.88-10.76,2.63-3.1,1.75-5.52,4.3-7.24,7.64-1.73,3.34-2.62,7.35-2.66,12.04Z"/>
  <path d="M718.1,152.27V6.82h57.39c10.98,0,20.37,1.95,28.16,5.86,7.79,3.91,13.73,9.42,17.83,16.55,4.09,7.13,6.14,15.5,6.14,25.11s-2.08,17.96-6.25,24.89c-4.17,6.94-10.19,12.25-18.08,15.94-7.88,3.69-17.41,5.54-28.59,5.54h-38.42v-24.72h33.45c5.87,0,10.75-.8,14.63-2.42,3.88-1.61,6.78-4.02,8.7-7.24,1.92-3.22,2.88-7.22,2.88-12s-.96-8.9-2.88-12.22c-1.92-3.31-4.83-5.83-8.74-7.56-3.91-1.73-8.82-2.59-14.74-2.59h-20.74v120.31h-30.75ZM796.66,86.08l36.15,66.19h-33.95l-35.37-66.19h33.17Z"/>
  <path d="M898.08,154.4c-11.03,0-20.56-2.35-28.59-7.07-8.03-4.71-14.22-11.29-18.57-19.74-4.36-8.45-6.53-18.26-6.53-29.44s2.18-21.13,6.53-29.58,10.55-15.03,18.57-19.74c8.03-4.71,17.55-7.07,28.59-7.07s20.56,2.36,28.59,7.07c8.03,4.71,14.22,11.29,18.57,19.74s6.53,18.31,6.53,29.58-2.18,20.99-6.53,29.44c-4.36,8.45-10.55,15.03-18.57,19.74-8.03,4.71-17.55,7.07-28.59,7.07ZM898.22,130.97c5.02,0,9.21-1.43,12.57-4.3,3.36-2.86,5.91-6.78,7.63-11.75,1.73-4.97,2.59-10.63,2.59-16.97s-.86-12-2.59-16.97c-1.73-4.97-4.27-8.9-7.63-11.79-3.36-2.89-7.55-4.33-12.57-4.33s-9.32,1.45-12.75,4.33c-3.43,2.89-6.01,6.82-7.74,11.79-1.73,4.97-2.59,10.63-2.59,16.97s.86,12,2.59,16.97c1.73,4.97,4.31,8.89,7.74,11.75,3.43,2.87,7.68,4.3,12.75,4.3Z"/>
  <path d="M1001.77,6.82v145.45h-30.25V6.82h30.25Z"/>
  <path d="M1056.17,6.82v145.45h-30.25V6.82h30.25Z"/>
</svg>